<mxfile host="app.diagrams.net" modified="2022-09-20T02:16:24.227Z" agent="5.0 (X11; Linux x86_64) AppleWebKit/537.36 (KHTML, like Gecko) Chrome/93.0.4577.63 Safari/537.36 UOS" etag="1CLTaCii7ijb2Da2Pwl3" version="20.3.0" type="github">
  <diagram id="P1hAh3E_2Df4bycmIn8N" name="第 1 页">
    <mxGraphModel dx="981" dy="508" grid="1" gridSize="10" guides="1" tooltips="1" connect="1" arrows="1" fold="1" page="1" pageScale="1" pageWidth="1100" pageHeight="850" math="0" shadow="0">
      <root>
        <mxCell id="0" />
        <mxCell id="1" parent="0" />
        <mxCell id="dKf4NhHhp_i4g7B589hb-7" style="edgeStyle=orthogonalEdgeStyle;rounded=0;orthogonalLoop=1;jettySize=auto;html=1;exitX=0;exitY=0.5;exitDx=0;exitDy=0;entryX=1;entryY=0.5;entryDx=0;entryDy=0;dashed=1;" edge="1" parent="1" source="dKf4NhHhp_i4g7B589hb-1" target="dKf4NhHhp_i4g7B589hb-2">
          <mxGeometry relative="1" as="geometry" />
        </mxCell>
        <mxCell id="dKf4NhHhp_i4g7B589hb-11" style="edgeStyle=orthogonalEdgeStyle;rounded=0;orthogonalLoop=1;jettySize=auto;html=1;exitX=0.5;exitY=1;exitDx=0;exitDy=0;entryX=0.5;entryY=0;entryDx=0;entryDy=0;" edge="1" parent="1" source="dKf4NhHhp_i4g7B589hb-1" target="dKf4NhHhp_i4g7B589hb-6">
          <mxGeometry relative="1" as="geometry" />
        </mxCell>
        <mxCell id="dKf4NhHhp_i4g7B589hb-1" value="N卡" style="rounded=0;whiteSpace=wrap;html=1;" vertex="1" parent="1">
          <mxGeometry x="725" y="260" width="70" height="40" as="geometry" />
        </mxCell>
        <mxCell id="dKf4NhHhp_i4g7B589hb-8" style="edgeStyle=orthogonalEdgeStyle;rounded=0;orthogonalLoop=1;jettySize=auto;html=1;exitX=0.5;exitY=1;exitDx=0;exitDy=0;entryX=0.5;entryY=0;entryDx=0;entryDy=0;" edge="1" parent="1" source="dKf4NhHhp_i4g7B589hb-2" target="dKf4NhHhp_i4g7B589hb-4">
          <mxGeometry relative="1" as="geometry" />
        </mxCell>
        <mxCell id="dKf4NhHhp_i4g7B589hb-2" value="I卡" style="rounded=0;whiteSpace=wrap;html=1;" vertex="1" parent="1">
          <mxGeometry x="545" y="260" width="70" height="40" as="geometry" />
        </mxCell>
        <mxCell id="dKf4NhHhp_i4g7B589hb-3" value="笔记显示器" style="rounded=0;whiteSpace=wrap;html=1;" vertex="1" parent="1">
          <mxGeometry x="520" y="410" width="120" height="60" as="geometry" />
        </mxCell>
        <mxCell id="dKf4NhHhp_i4g7B589hb-9" style="edgeStyle=orthogonalEdgeStyle;rounded=0;orthogonalLoop=1;jettySize=auto;html=1;exitX=0.5;exitY=1;exitDx=0;exitDy=0;" edge="1" parent="1" source="dKf4NhHhp_i4g7B589hb-4" target="dKf4NhHhp_i4g7B589hb-3">
          <mxGeometry relative="1" as="geometry" />
        </mxCell>
        <mxCell id="dKf4NhHhp_i4g7B589hb-4" value="内置eDP" style="rounded=0;whiteSpace=wrap;html=1;dashed=1;" vertex="1" parent="1">
          <mxGeometry x="550" y="350" width="60" height="30" as="geometry" />
        </mxCell>
        <mxCell id="dKf4NhHhp_i4g7B589hb-6" value="扩展HDMI" style="rounded=0;whiteSpace=wrap;html=1;" vertex="1" parent="1">
          <mxGeometry x="725" y="340" width="70" height="30" as="geometry" />
        </mxCell>
        <mxCell id="dKf4NhHhp_i4g7B589hb-13" style="edgeStyle=orthogonalEdgeStyle;rounded=0;orthogonalLoop=1;jettySize=auto;html=1;exitX=0;exitY=0.5;exitDx=0;exitDy=0;entryX=1;entryY=0.5;entryDx=0;entryDy=0;dashed=1;" edge="1" parent="1" source="dKf4NhHhp_i4g7B589hb-15" target="dKf4NhHhp_i4g7B589hb-17">
          <mxGeometry relative="1" as="geometry" />
        </mxCell>
        <mxCell id="dKf4NhHhp_i4g7B589hb-15" value="N卡" style="rounded=0;whiteSpace=wrap;html=1;" vertex="1" parent="1">
          <mxGeometry x="325" y="260" width="70" height="40" as="geometry" />
        </mxCell>
        <mxCell id="dKf4NhHhp_i4g7B589hb-16" style="edgeStyle=orthogonalEdgeStyle;rounded=0;orthogonalLoop=1;jettySize=auto;html=1;exitX=0.5;exitY=1;exitDx=0;exitDy=0;entryX=0.5;entryY=0;entryDx=0;entryDy=0;" edge="1" parent="1" source="dKf4NhHhp_i4g7B589hb-17" target="dKf4NhHhp_i4g7B589hb-20">
          <mxGeometry relative="1" as="geometry" />
        </mxCell>
        <mxCell id="dKf4NhHhp_i4g7B589hb-23" style="edgeStyle=orthogonalEdgeStyle;rounded=0;orthogonalLoop=1;jettySize=auto;html=1;exitX=0.5;exitY=1;exitDx=0;exitDy=0;entryX=0.5;entryY=0;entryDx=0;entryDy=0;" edge="1" parent="1" source="dKf4NhHhp_i4g7B589hb-17" target="dKf4NhHhp_i4g7B589hb-21">
          <mxGeometry relative="1" as="geometry">
            <Array as="points">
              <mxPoint x="180" y="320" />
              <mxPoint x="360" y="320" />
            </Array>
          </mxGeometry>
        </mxCell>
        <mxCell id="dKf4NhHhp_i4g7B589hb-17" value="I卡" style="rounded=0;whiteSpace=wrap;html=1;" vertex="1" parent="1">
          <mxGeometry x="145" y="260" width="70" height="40" as="geometry" />
        </mxCell>
        <mxCell id="dKf4NhHhp_i4g7B589hb-18" value="笔记显示器" style="rounded=0;whiteSpace=wrap;html=1;" vertex="1" parent="1">
          <mxGeometry x="120" y="410" width="120" height="60" as="geometry" />
        </mxCell>
        <mxCell id="dKf4NhHhp_i4g7B589hb-19" style="edgeStyle=orthogonalEdgeStyle;rounded=0;orthogonalLoop=1;jettySize=auto;html=1;exitX=0.5;exitY=1;exitDx=0;exitDy=0;" edge="1" parent="1" source="dKf4NhHhp_i4g7B589hb-20" target="dKf4NhHhp_i4g7B589hb-18">
          <mxGeometry relative="1" as="geometry" />
        </mxCell>
        <mxCell id="dKf4NhHhp_i4g7B589hb-20" value="内置eDP" style="rounded=0;whiteSpace=wrap;html=1;dashed=1;" vertex="1" parent="1">
          <mxGeometry x="150" y="350" width="60" height="30" as="geometry" />
        </mxCell>
        <mxCell id="dKf4NhHhp_i4g7B589hb-21" value="扩展HDMI" style="rounded=0;whiteSpace=wrap;html=1;" vertex="1" parent="1">
          <mxGeometry x="325" y="340" width="70" height="30" as="geometry" />
        </mxCell>
      </root>
    </mxGraphModel>
  </diagram>
</mxfile>
